# xmcd CD database file
#
# Track frame offsets:
#	150
#	11001
#	28469
#	54720
#	65891
#	81560
#	93135
#	108473
#	128297
#	147403
#
# Disc length: 2132 seconds
#
# Revision: 0
# Processed by: cddbd v1.5.2PL0 Copyright (c) Steve Scherf et al.
# Submitted via: CDex 1.70beta2
#
DISCID=8e08520a
DTITLE=Stefania Rava - Send in the Clowns - PCCY-50056
DYEAR=2009
DGENRE=Jazz
TTITLE0=Our Day Will Come
TTITLE1=Send in the Clowns
TTITLE2=Summertime
TTITLE3=When Sunny Gets Blue
TTITLE4=Jubilee
TTITLE5=A Time for Love
TTITLE6=I've Got Just about Everything
TTITLE7=The One Who Needs You
TTITLE8=Speak Low
TTITLE9=Sambandrea
EXTD=YEAR: 2009
EXTT0=
EXTT1=
EXTT2=
EXTT3=
EXTT4=
EXTT5=
EXTT6=
EXTT7=
EXTT8=
EXTT9=
PLAYORDER=
